<svg width="37" height="48" viewBox="0 0 37 48" fill="none" xmlns="http://www.w3.org/2000/svg">
<path d="M29.0758 47.0153C30.3358 47.0153 31.3571 45.9939 31.3571 44.734V2.2822C31.3571 1.02298 30.3369 0.00208415 29.0779 0.000976562H2.28122C1.02129 0.000976562 0 1.02237 0 2.2822V44.734C0 45.994 1.02139 47.0153 2.28122 47.0153H29.0758Z" fill="#453F7C"/>
<path d="M34.719 0H28.1426C29.4025 0 30.4239 1.0214 30.4239 2.28132V44.7332C30.4239 45.9931 29.4025 47.0144 28.1426 47.0144H34.719C35.9789 47.0144 37.0002 45.993 37.0002 44.7332V2.28132C37.0002 1.0214 35.9789 0 34.719 0V0Z" fill="#453F7C"/>
<path d="M14.2939 18.3073H6.1116C5.22583 18.3073 4.50781 17.5893 4.50781 16.7035V6.55764C4.50781 5.67187 5.22583 4.95386 6.1116 4.95386H14.2939C15.1797 4.95386 15.8977 5.67187 15.8977 6.55764V16.7036C15.8977 17.5893 15.1797 18.3073 14.2939 18.3073Z" fill="white"/>
<path d="M10.204 13.1846C7.6101 13.1846 5.40228 14.8348 4.57129 17.1424C4.7623 17.8146 5.37932 18.3075 6.11275 18.3075H14.2951C15.0285 18.3075 15.6455 17.8146 15.8365 17.1424C15.0056 14.8348 12.7978 13.1846 10.204 13.1846V13.1846Z" fill="#BBBBBB"/>
<path d="M10.2039 13.7862C11.6147 13.7862 12.7584 12.6425 12.7584 11.2317C12.7584 9.82093 11.6147 8.67725 10.2039 8.67725C8.7931 8.67725 7.64941 9.82093 7.64941 11.2317C7.64941 12.6425 8.7931 13.7862 10.2039 13.7862Z" fill="#BBBBBB"/>
<path d="M31.613 24.7268H4.57187C4.14223 24.7268 3.79395 24.3785 3.79395 23.9488C3.79395 23.5192 4.14223 23.1709 4.57187 23.1709H31.613C32.0426 23.1709 32.3909 23.5192 32.3909 23.9488C32.3909 24.3785 32.0426 24.7268 31.613 24.7268Z" fill="white"/>
<path d="M31.613 29.7395H4.57187C4.14223 29.7395 3.79395 29.3912 3.79395 28.9615C3.79395 28.5319 4.14223 28.1836 4.57187 28.1836H31.613C32.0426 28.1836 32.3909 28.5319 32.3909 28.9615C32.3909 29.3912 32.0426 29.7395 31.613 29.7395Z" fill="white"/>
<path d="M31.613 34.7519H4.57187C4.14223 34.7519 3.79395 34.4036 3.79395 33.974C3.79395 33.5443 4.14223 33.196 4.57187 33.196H31.613C32.0426 33.196 32.3909 33.5443 32.3909 33.974C32.3909 34.4036 32.0426 34.7519 31.613 34.7519Z" fill="white"/>
<path d="M31.613 39.7646H4.57187C4.14223 39.7646 3.79395 39.4163 3.79395 38.9867C3.79395 38.557 4.14223 38.2087 4.57187 38.2087H31.613C32.0426 38.2087 32.3909 38.557 32.3909 38.9867C32.3909 39.4163 32.0426 39.7646 31.613 39.7646Z" fill="white"/>
<path d="M31.6117 14.4645H21.6754C21.2457 14.4645 20.8975 14.1163 20.8975 13.6866C20.8975 13.257 21.2457 12.9087 21.6754 12.9087H31.6117C32.0414 12.9087 32.3897 13.257 32.3897 13.6866C32.3897 14.1163 32.0414 14.4645 31.6117 14.4645Z" fill="white"/>
<path d="M31.6117 10.3525H21.6754C21.2457 10.3525 20.8975 10.0042 20.8975 9.57456C20.8975 9.14492 21.2457 8.79663 21.6754 8.79663H31.6117C32.0414 8.79663 32.3897 9.14492 32.3897 9.57456C32.3897 10.0042 32.0414 10.3525 31.6117 10.3525Z" fill="white"/>
</svg>
