<svg width="50" height="50" viewBox="0 0 50 50" fill="none" xmlns="http://www.w3.org/2000/svg">
<path d="M25 0C11.2146 0 0 11.2146 0 25C0 38.7854 11.2146 50 25 50C38.7854 50 50 38.7854 50 25C50 11.2146 38.7854 0 25 0ZM37.6708 19.7021L24.1292 33.2438C23.7229 33.65 23.1896 33.8542 22.6562 33.8542C22.1229 33.8542 21.5896 33.65 21.1833 33.2438L14.4125 26.4729C13.5979 25.6583 13.5979 24.3417 14.4125 23.5271C15.2271 22.7125 16.5437 22.7125 17.3583 23.5271L22.6562 28.825L34.725 16.7563C35.5396 15.9417 36.8563 15.9417 37.6708 16.7563C38.4854 17.5708 38.4854 18.8875 37.6708 19.7021Z" fill="#453F7C"/>
</svg>
