<svg width="45" height="45" viewBox="0 0 45 45" fill="none" xmlns="http://www.w3.org/2000/svg">
<path d="M16.9826 28.9707L16.2921 33.0715C16.198 33.6321 16.4281 34.197 16.887 34.5316C17.3467 34.8655 17.9571 34.9102 18.4593 34.647L22.1462 32.7225L25.833 34.6474C26.0511 34.7606 26.2902 34.8175 26.5267 34.8175C26.8364 34.8175 27.1454 34.7205 27.406 34.532C27.8654 34.1974 28.0961 33.6324 28.0013 33.0718L27.3116 28.9711L30.2802 26.059C30.6862 25.6613 30.8308 25.0679 30.6566 24.5278C30.4818 23.9881 30.0138 23.593 29.4521 23.51L25.3384 22.9L23.4856 19.176C23.2343 18.6677 22.7136 18.3457 22.1458 18.3457C21.579 18.3457 21.0588 18.6677 20.8053 19.176L18.9543 22.9L14.8406 23.5097C14.2778 23.5926 13.812 23.9877 13.6368 24.5275C13.4616 25.0675 13.6058 25.6617 14.0125 26.0587L16.9826 28.9707Z" fill="#453F7C"/>
<path d="M39.827 4.78396H35.1166V2.17115C35.1166 0.972006 34.1446 0 32.9451 0H32.6008C31.4016 0 30.43 0.972006 30.43 2.17115V4.78396H13.8103V2.17115C13.8103 0.972006 12.8383 0 11.6396 0H11.2949C10.0957 0 9.1241 0.972006 9.1241 2.17115V4.78396H4.46849C2.00494 4.78396 0 6.78818 0 9.25245V40.5315C0 42.9943 2.00494 45 4.46849 45H39.8274C42.2906 45 44.2959 42.9947 44.2959 40.5315V9.25245C44.2955 6.78818 42.2902 4.78396 39.827 4.78396ZM39.244 39.9485H5.05148V15.5997H39.244V39.9485Z" fill="#453F7C"/>
</svg>
