<svg width="50" height="50" viewBox="0 0 50 50" fill="none" xmlns="http://www.w3.org/2000/svg">
<path d="M42.6777 7.32227C37.9558 2.60049 31.6777 0 25 0C18.3223 0 12.0442 2.60049 7.32227 7.32227C2.60049 12.0442 0 18.3223 0 25C0 31.6777 2.60049 37.9558 7.32227 42.6777C12.0442 47.3995 18.3223 50 25 50C31.6777 50 37.9558 47.3995 42.6777 42.6777C47.3995 37.9558 50 31.6777 50 25C50 18.3223 47.3995 12.0442 42.6777 7.32227V7.32227ZM33.8257 14.7095C37.0667 14.7095 39.7034 17.3462 39.7034 20.5872H36.7737C36.7737 18.9616 35.4513 17.6392 33.8257 17.6392C32.2001 17.6392 30.8776 18.9616 30.8776 20.5872H27.948C27.948 17.3462 30.5848 14.7095 33.8257 14.7095ZM16.1743 14.7095C19.4153 14.7095 22.0521 17.3462 22.0521 20.5872H19.1224C19.1224 18.9616 17.7999 17.6392 16.1743 17.6392C14.5487 17.6392 13.2263 18.9616 13.2263 20.5872H10.2966C10.2967 17.3462 12.9334 14.7095 16.1743 14.7095ZM25 41.1743C18.5682 41.1743 12.7479 37.3653 10.1723 31.4704L12.8568 30.2974C14.9662 35.1251 19.7326 38.2445 25 38.2445C30.2673 38.2445 35.0337 35.1251 37.1432 30.2975L39.8277 31.4705C37.2521 37.3653 31.4318 41.1743 25 41.1743V41.1743Z" fill="#453F7C"/>
</svg>
