<svg width="462" height="357" viewBox="0 0 462 357" fill="none" xmlns="http://www.w3.org/2000/svg">
<path d="M228.733 287.666C199.461 287.666 171.095 277.526 148.467 258.972C125.84 240.419 110.351 214.601 104.641 185.918C98.9299 157.234 103.351 127.459 117.149 101.667C130.948 75.8748 153.271 55.6606 180.315 44.4689C207.359 33.2771 237.45 31.8002 265.462 40.2897C293.473 48.7793 317.672 66.7101 333.935 91.0269C350.197 115.344 357.518 144.542 354.649 173.647C351.779 202.752 338.898 229.962 318.2 250.642C306.478 262.417 292.535 271.752 277.178 278.107C261.822 284.463 245.355 287.712 228.733 287.666ZM228.733 35.6694C159.422 35.6694 103.033 92.0072 103.033 161.256C103.033 230.505 159.422 286.843 228.733 286.843C298.045 286.843 354.434 230.505 354.434 161.256C354.434 92.0072 298.045 35.6694 228.733 35.6694Z" fill="#3F3D56"/>
<path d="M239.391 273.708C237.048 282.361 229.022 287.72 229.022 287.72C229.022 287.72 224.796 279.05 227.139 270.396C229.482 261.743 237.507 256.384 237.507 256.384C237.507 256.384 241.734 265.054 239.391 273.708Z" fill="#453F7C"/>
<path d="M218.076 273.708C220.419 282.361 228.444 287.72 228.444 287.72C228.444 287.72 232.671 279.05 230.328 270.396C227.985 261.743 219.96 256.384 219.96 256.384C219.96 256.384 215.733 265.054 218.076 273.708Z" fill="#453F7C"/>
<path d="M221.519 271.848C227.948 278.101 228.733 287.713 228.733 287.713C228.733 287.713 219.095 287.187 212.665 280.934C206.236 274.681 205.451 265.069 205.451 265.069C205.451 265.069 215.089 265.595 221.519 271.848Z" fill="#3F3D56"/>
<path d="M235.948 271.848C229.519 278.101 228.733 287.713 228.733 287.713C228.733 287.713 238.372 287.187 244.801 280.934C251.23 274.681 252.016 265.069 252.016 265.069C252.016 265.069 242.377 265.595 235.948 271.848Z" fill="#3F3D56"/>
<path d="M218.076 49.2813C220.419 40.628 228.444 35.2688 228.444 35.2688C228.444 35.2688 232.671 43.9393 230.328 52.5926C227.985 61.2459 219.96 66.6051 219.96 66.6051C219.96 66.6051 215.733 57.9346 218.076 49.2813Z" fill="#453F7C"/>
<path d="M239.391 49.2813C237.048 40.628 229.022 35.2688 229.022 35.2688C229.022 35.2688 224.796 43.9393 227.139 52.5926C229.482 61.2459 237.507 66.6051 237.507 66.6051C237.507 66.6051 241.734 57.9346 239.391 49.2813Z" fill="#453F7C"/>
<path d="M235.948 51.141C229.519 44.888 228.733 35.2758 228.733 35.2758C228.733 35.2758 238.372 35.8016 244.801 42.0545C251.23 48.3075 252.016 57.9197 252.016 57.9197C252.016 57.9197 242.377 57.3939 235.948 51.141Z" fill="#3F3D56"/>
<path d="M221.519 51.141C227.948 44.888 228.733 35.2758 228.733 35.2758C228.733 35.2758 219.095 35.8016 212.665 42.0545C206.236 48.3075 205.451 57.9197 205.451 57.9197C205.451 57.9197 215.089 57.3939 221.519 51.141Z" fill="#3F3D56"/>
<path d="M169.833 5.21979H6.02856V171.639H169.833V5.21979Z" fill="#453F7C"/>
<path d="M163.643 9.44371H17.7228H9.45215V18.2974V165.266H17.7228V18.2974H163.643V9.44371Z" fill="#3F3D56"/>
<path opacity="0.3" d="M163.643 9.44371H17.7228H9.45215V18.2974V165.266H17.7228V18.2974H163.643V9.44371Z" fill="black"/>
<path opacity="0.1" d="M140.012 18.2974H133.514H17.7229V39.5458H133.514V165.266H163.643V18.2974H140.012Z" fill="black"/>
<path d="M0 0V174.71H173.095V0H0ZM163.643 165.266H9.45231V9.44379H163.643V165.266Z" fill="#3F3D56"/>
<path d="M121.476 181.151C121.476 181.151 129.303 196.302 133.706 199.723C138.109 203.145 126.613 207.299 126.613 207.299L113.16 186.283L121.476 181.151Z" fill="#A0616A"/>
<path d="M74.0239 144.25C74.0239 144.25 110.469 153.781 113.649 160.135C116.829 166.488 126.612 181.884 126.612 181.884L112.181 193.37L97.9945 172.109L58.8589 154.514L74.0239 144.25Z" fill="#2F2E41"/>
<path d="M125.39 201.19C125.39 201.19 121.965 198.257 120.987 200.212C120.008 202.167 117.073 212.187 117.073 212.187C117.073 212.187 121.231 216.097 129.792 213.653C129.792 213.653 131.994 211.942 135.418 213.653C138.842 215.364 151.562 211.942 151.072 206.322C150.583 200.701 137.619 201.19 137.619 201.19C137.619 201.19 132.159 195.078 131.465 197.401C130.771 199.724 131.749 199.968 131.749 199.968C131.749 199.968 127.346 204.611 125.39 201.19Z" fill="#2F2E41"/>
<path d="M83.5632 196.058L81.1172 216.585H93.1025C93.1025 216.585 92.1241 200.701 92.3687 198.746C92.6133 196.791 83.5632 196.058 83.5632 196.058Z" fill="#A0616A"/>
<path d="M90.412 150.848C90.412 150.848 97.0162 160.623 93.1026 161.356C89.1891 162.09 86.0093 150.848 86.0093 150.848H90.412Z" fill="#A0616A"/>
<path d="M40.5141 149.871C40.5141 149.871 35.6222 164.289 54.9454 168.199C74.2686 172.109 80.139 175.286 80.139 175.286L82.5849 200.212L99.4622 201.19C99.4622 201.19 107.534 163.311 97.0162 158.424C86.4985 153.536 64.2401 147.916 64.2401 147.916L40.5141 149.871Z" fill="#2F2E41"/>
<path d="M82.5849 213.409C82.5849 213.409 86.0093 211.698 86.4985 211.698C86.4985 211.698 88.6484 206.744 92.5877 207.266L101.174 219.762C101.174 219.762 114.138 229.049 105.088 231.493C96.0378 233.936 88.9445 231.981 88.9445 231.981L85.2755 229.293C85.2755 229.293 85.7647 226.605 82.5849 227.094C82.5849 227.094 75.9808 224.406 76.2254 222.451C76.47 220.496 81.6654 211.986 81.6654 211.986L82.5849 213.409Z" fill="#2F2E41"/>
<path d="M84.6638 102.339C90.0673 102.339 94.4477 97.963 94.4477 92.5644C94.4477 87.1658 90.0673 82.7893 84.6638 82.7893C79.2603 82.7893 74.8799 87.1658 74.8799 92.5644C74.8799 97.963 79.2603 102.339 84.6638 102.339Z" fill="#A0616A"/>
<path d="M76.7146 89.5097C76.7146 89.5097 67.9091 95.8635 66.1969 96.1078C64.4848 96.3522 74.2687 108.327 74.2687 108.327C74.2687 108.327 78.916 100.751 81.8512 99.7735C84.7864 98.796 76.7146 89.5097 76.7146 89.5097Z" fill="#A0616A"/>
<path d="M70.1104 97.5741C70.1104 97.5741 66.4414 92.6866 64.24 92.6866C62.0386 92.6866 42.2262 94.886 40.514 111.259C38.8019 127.632 39.7803 156.225 39.7803 156.225C39.7803 156.225 38.3127 149.138 54.7007 152.07C54.7007 152.07 74.2685 147.916 77.6929 147.916C81.1173 147.916 82.5849 112.97 82.5849 112.97L77.0156 104.343C77.0156 104.343 74.5131 109.06 70.1104 97.5741Z" fill="#D0CDE1"/>
<path d="M78.9159 111.015L82.5849 112.97L86.9876 139.851L93.1026 153.781C93.1026 153.781 86.4984 151.509 86.0092 154.233L76.2253 140.096L78.9159 111.015Z" fill="#D0CDE1"/>
<path d="M82.4643 84.5477L87.787 85.212C87.6854 86.2942 87.7136 87.6348 88.6733 88.1467C89.1245 88.3874 89.697 88.3751 90.0969 88.6936C91.0586 89.4597 90.1179 91.1073 90.6609 92.21L92.2176 92.6216C92.4046 92.9712 92.659 93.2804 92.9661 93.5314C93.2731 93.7824 93.6269 93.9702 94.0069 94.0841C94.387 94.198 94.7858 94.2356 95.1804 94.1949C95.5751 94.1542 95.9578 94.0359 96.3065 93.8468C97.3526 93.2193 97.8856 92.0202 98.3563 90.8955C98.9186 89.5518 99.4925 88.1081 99.211 86.6791C98.9086 85.1438 97.6532 83.8679 97.5962 82.3042C97.5707 81.6046 97.7186 80.7325 97.1283 80.3554C96.8567 80.2279 96.5644 80.1503 96.2652 80.1265C94.9054 79.8428 94.1483 78.4367 93.1342 77.4881C91.009 75.5003 87.7455 75.5525 84.8395 75.7259C84.0076 75.7289 83.1823 75.8726 82.3985 76.151C81.5125 76.595 80.7291 77.2191 80.0987 77.9832C78.5403 79.6439 77.023 81.3833 75.9949 83.4149C74.9668 85.4464 74.4603 87.82 75.0191 90.027C74.9641 89.8146 76.8137 88.4251 77.0439 88.2024C77.7668 87.503 77.8326 87.169 78.2238 86.3642C79.1357 84.4883 80.4038 84.2906 82.4643 84.5477Z" fill="#2F2E41"/>
<path opacity="0.1" d="M66.8083 116.024L67.5424 133.131L78.4222 145.879L68.5208 131.665L66.8083 116.024Z" fill="black"/>
<path opacity="0.1" d="M47.2407 120.668L55.8015 140.462L66.8083 149.504L55.0675 141.44L47.2407 120.668Z" fill="black"/>
<path d="M93.7427 136.712L98.9155 140.267C99.1731 140.47 99.353 140.755 99.425 141.075C99.497 141.394 99.4566 141.729 99.3107 142.023L98.6189 143.449L98.7791 143.559L97.993 145.18L97.8328 145.07L92.1349 156.817C92.0758 156.972 91.9826 157.111 91.8623 157.225C91.7421 157.338 91.5978 157.423 91.4401 157.473C91.2825 157.524 91.1155 157.538 90.9516 157.515C90.7877 157.492 90.6311 157.433 90.4934 157.341L85.6322 154C85.336 153.767 85.1291 153.439 85.0464 153.071C84.9636 152.704 85.01 152.319 85.1778 151.981L92.3717 137.149C92.4211 137.02 92.4989 136.904 92.5994 136.809C92.6998 136.714 92.8204 136.643 92.952 136.601C93.0837 136.559 93.2231 136.547 93.36 136.567C93.4968 136.586 93.6276 136.635 93.7427 136.712Z" fill="#3F3D56"/>
<path d="M85.7136 151.852L91.2811 155.678L98.5441 140.704L92.9762 136.877L85.7136 151.852Z" fill="white"/>
<path d="M83.2962 148.555C83.2962 148.555 92.9986 155.273 89.6174 157.374C86.2362 159.475 79.1931 150.15 79.1931 150.15L83.2962 148.555Z" fill="#A0616A"/>
<path d="M54.4561 98.796C54.4561 98.796 41.7371 102.462 45.406 113.703C46.2911 116.415 47.3611 119.325 48.4755 122.181C51.9806 131.165 55.9237 139.607 55.9237 139.607L66.9793 149.594L81.8511 153.781L83.5633 152.314C83.5633 152.314 84.0525 147.671 81.8511 147.183C79.6497 146.694 76.2253 144.739 76.2253 144.739L67.4198 131.787C67.4198 131.787 67.1752 99.5291 54.4561 98.796Z" fill="#D0CDE1"/>
<path d="M296.211 291.283H456.115V128.826L296.211 128.826V291.283Z" fill="#453F7C"/>
<path d="M302.253 132.949H444.699H452.773V141.592V285.062H444.699V141.592H302.253V132.949Z" fill="#3F3D56"/>
<path opacity="0.3" d="M302.253 132.949H444.699H452.773V141.592V285.062H444.699V141.592H302.253V132.949Z" fill="black"/>
<path opacity="0.1" d="M325.321 141.592H331.665H444.699V162.335H331.665V285.062H302.253V141.592H325.321Z" fill="black"/>
<path d="M293.026 123.73V294.28H462V123.73H293.026ZM302.253 132.949H452.773V285.062H302.253V132.949Z" fill="#3F3D56"/>
<path d="M391.762 204.138C388.124 197.995 380.925 197.709 380.925 197.709C380.925 197.709 373.91 196.813 369.41 206.168C365.216 214.888 359.427 223.307 368.478 225.348L370.113 220.264L371.126 225.727C372.414 225.819 373.707 225.841 374.998 225.793C384.691 225.48 393.922 225.884 393.625 222.409C393.23 217.79 395.263 210.048 391.762 204.138Z" fill="#2F2E41"/>
<path d="M365.536 253.714L364.77 267.481L387.225 269.775L387.991 255.499L380.335 250.655L365.536 253.714Z" fill="#A0616A"/>
<path d="M425.883 283.924C425.209 277.42 398.476 274.468 392.051 273.852L389.649 272.452L388.884 264.294C388.884 264.294 365.153 262.254 363.367 262C361.581 261.745 360.05 265.059 360.05 265.824C360.05 266.376 359.716 270.324 358.375 272.663C355.48 274.987 346.654 282.3 346.654 285.071C346.654 288.385 353.671 330.067 353.671 330.067L354.436 338.735L361.581 340.01L361.07 312.987C361.07 312.987 363.622 297.436 360.05 293.102V291.317C360.05 291.317 370.528 288.59 374.22 285.62C375.29 285.391 378.297 284.825 379.958 285.317C380.186 285.451 380.448 285.588 380.74 285.728C380.778 285.762 380.813 285.798 380.846 285.836L380.875 285.792C385.652 288.026 397.906 290.844 402.918 290.042C406.783 289.453 410.735 290.171 414.145 292.082C411.338 295.651 413.38 305.848 413.38 305.848L413.635 327.773L417.207 332.107H422.055V320.125C422.055 320.125 426.648 291.317 425.883 283.924Z" fill="#2F2E41"/>
<path d="M378.677 220.955C383.327 220.955 387.097 217.188 387.097 212.542C387.097 207.896 383.327 204.129 378.677 204.129C374.026 204.129 370.256 207.896 370.256 212.542C370.256 217.188 374.026 220.955 378.677 220.955Z" fill="#A0616A"/>
<path d="M373.574 217.896C373.574 217.896 374.849 223.504 373.063 224.014C371.65 224.482 370.283 225.079 368.981 225.799L366.939 232.427V239.055L391.69 241.86L392.456 239.565V236.251L389.649 231.152L388.373 229.878C388.373 229.878 382.76 223.759 384.035 217.896H373.574Z" fill="#A0616A"/>
<path d="M395.646 238.163C395.646 238.163 396.411 247.086 395.646 251.165C394.88 255.244 395.135 261.362 395.135 261.362L389.521 260.342V246.576L390.797 239.183L395.646 238.163Z" fill="#A0616A"/>
<path d="M381.806 202.94C384.681 202.94 387.011 200.612 387.011 197.74C387.011 194.868 384.681 192.54 381.806 192.54C378.931 192.54 376.601 194.868 376.601 197.74C376.601 200.612 378.931 202.94 381.806 202.94Z" fill="#2F2E41"/>
<path d="M376.053 196.371C376.053 195.087 376.529 193.848 377.389 192.893C378.249 191.939 379.432 191.336 380.71 191.2C380.528 191.181 380.345 191.171 380.162 191.171C378.782 191.171 377.458 191.719 376.482 192.694C375.505 193.669 374.957 194.992 374.957 196.371C374.957 197.751 375.505 199.073 376.482 200.049C377.458 201.024 378.782 201.572 380.162 201.572C380.345 201.572 380.528 201.562 380.71 201.543C379.432 201.407 378.249 200.804 377.389 199.85C376.529 198.895 376.053 197.656 376.053 196.371Z" fill="#2F2E41"/>
<path d="M390.154 203.546L383.042 199.824L373.22 201.346L371.188 210.313L376.247 210.119L377.66 206.824V210.064L379.994 209.974L381.348 204.73L382.195 210.313L390.492 210.144L390.154 203.546Z" fill="#2F2E41"/>
<path d="M361.184 330.174C361.184 330.174 364.804 331.876 365.869 332.515C366.934 333.153 371.194 331.876 370.342 335.707C369.49 339.537 365.869 343.155 365.869 343.155C365.869 343.155 364.166 345.07 364.166 346.347C364.166 347.623 359.906 357.412 354.794 356.986C349.682 356.561 350.534 351.454 350.534 351.454L351.599 345.921C351.599 345.921 353.729 336.558 354.155 336.771C354.581 336.984 355.646 338.473 355.646 338.473C355.646 338.473 360.971 336.345 361.184 330.174Z" fill="#D0CDE1"/>
<path d="M414.287 323.801C414.287 323.801 410.666 325.503 409.601 326.141C408.536 326.78 404.276 325.503 405.128 329.333C405.98 333.164 409.601 336.781 409.601 336.781C409.601 336.781 411.305 338.696 411.305 339.973C411.305 341.25 415.565 351.039 420.677 350.613C425.788 350.188 424.936 345.08 424.936 345.08L423.871 339.548C423.871 339.548 421.741 330.185 421.316 330.397C420.89 330.61 419.825 332.1 419.825 332.1C419.825 332.1 414.5 329.972 414.287 323.801Z" fill="#D0CDE1"/>
<path d="M386.213 263.145V261.122H385.763V260.223C385.763 260.016 385.722 259.812 385.643 259.621C385.564 259.43 385.448 259.256 385.302 259.11C385.156 258.964 384.982 258.848 384.791 258.769C384.6 258.69 384.395 258.649 384.188 258.649H378.788C378.37 258.649 377.97 258.815 377.674 259.11C377.379 259.405 377.213 259.806 377.213 260.223V275.285C377.213 275.702 377.379 276.102 377.674 276.397C377.97 276.692 378.37 276.858 378.788 276.858H384.188C384.606 276.858 385.006 276.692 385.302 276.397C385.597 276.102 385.763 275.702 385.763 275.285V265.843H386.213V263.82H385.763V263.145H386.213Z" fill="#D0CDE1"/>
<path d="M381.713 264.045C382.21 264.045 382.613 263.642 382.613 263.145C382.613 262.649 382.21 262.246 381.713 262.246C381.216 262.246 380.813 262.649 380.813 263.145C380.813 263.642 381.216 264.045 381.713 264.045Z" fill="#3F3D56"/>
<path d="M359.157 233.829L354.564 252.694C354.564 252.694 352.778 256.773 356.86 259.323C360.943 261.872 370.129 265.186 370.129 265.186C370.129 265.186 378.294 276.403 379.315 271.814C380.336 267.226 373.191 261.362 373.191 261.362L360.688 253.459L365.536 240.203L359.157 233.829Z" fill="#A0616A"/>
<path d="M392.328 257.538C392.328 257.538 396.156 257.028 395.9 261.362C395.645 265.696 390.542 266.206 390.542 266.206C390.542 266.206 388.245 275.894 384.928 274.109C381.611 272.324 386.714 262.637 386.714 262.637L391.052 259.323L392.328 257.538Z" fill="#A0616A"/>
<path d="M367.705 232.172L371.787 223.759L363.622 226.563C363.622 226.563 359.029 228.858 358.774 234.212C358.519 239.565 364.643 242.37 364.643 242.37C364.643 242.37 365.663 250.018 365.153 251.037C364.643 252.057 365.153 256.136 365.153 256.136C365.153 256.136 374.977 253.459 379.825 256.773C384.673 260.088 388.628 258.176 388.628 258.176C388.628 258.176 388.373 251.802 390.415 250.782C392.456 249.763 394.242 244.919 392.456 241.86C392.456 241.86 396.539 242.369 396.283 238.545C396.028 234.721 393.987 231.407 390.67 229.878C387.353 228.348 386.986 228.104 386.986 228.104L391.69 236.761V239.055C391.69 239.055 383.362 233.744 375.122 233.302C372.434 233.179 369.794 234.047 367.705 235.741L367.705 235.741V232.172Z" fill="#2F2E41"/>
</svg>
