<svg width="76" height="103" viewBox="0 0 76 103" fill="none" xmlns="http://www.w3.org/2000/svg">
<path d="M72.3814 30.383C71.8221 29.529 71.5495 28.5191 71.6032 27.4997L71.8477 23.0561C71.9252 21.6462 71.5903 20.2443 70.884 19.0216C70.1777 17.799 69.1305 16.8085 67.8705 16.1713L63.9377 14.1815C63.03 13.7246 62.2938 12.9873 61.8381 12.079L59.8516 8.14097C59.2162 6.88076 58.2272 5.83308 57.0057 5.12608C55.7841 4.41908 54.3831 4.08342 52.9738 4.16016L48.5377 4.40473C47.5204 4.45775 46.5127 4.1842 45.6619 3.62403L41.9929 1.20129C40.8081 0.417763 39.419 0 37.9985 0C36.5781 0 35.189 0.417763 34.0041 1.20129L30.335 3.62403C29.4848 4.18435 28.4776 4.45773 27.4609 4.40411L23.0229 4.15974C21.6136 4.08212 20.2123 4.41734 18.9907 5.12432C17.7691 5.8313 16.7802 6.87932 16.1454 8.13993L14.1588 12.0783C13.7033 12.9866 12.9674 13.7239 12.06 14.1811L8.1268 16.1709C6.8675 16.8089 5.82117 17.7997 5.11553 19.0224C4.4099 20.2451 4.07547 21.6467 4.15309 23.0563L4.39766 27.4995C4.45138 28.5189 4.17879 29.529 3.61946 30.383L1.19943 34.058C0.417024 35.2452 0 36.6358 0 38.0576C0 39.4794 0.417024 40.87 1.19943 42.0572L3.61841 45.7316C4.17754 46.5853 4.45012 47.5948 4.39661 48.6139L4.15204 53.0579C4.07461 54.4675 4.4092 55.8692 5.11498 57.0919C5.82076 58.3146 6.8672 59.3053 8.12659 59.9433L12.0592 61.9322C12.9668 62.3892 13.7031 63.1265 14.1588 64.0348L16.1452 67.9734C16.227 68.1358 16.3141 68.2939 16.4067 68.4477L3.77547 88.5544C3.65222 88.7506 3.58577 88.9771 3.5835 89.2087C3.58123 89.4404 3.64322 89.6682 3.76261 89.8667C3.88199 90.0653 4.05408 90.2269 4.25976 90.3335C4.46544 90.4402 4.69667 90.4877 4.92774 90.4709L18.3004 89.4949L23.2257 101.965C23.3108 102.181 23.4539 102.368 23.6393 102.508C23.8246 102.647 24.0449 102.732 24.2756 102.753C24.3144 102.756 24.3531 102.758 24.3915 102.758C24.6035 102.758 24.812 102.704 24.9976 102.602C25.1831 102.499 25.3395 102.351 25.4523 102.171L38 82.1993L50.5477 102.172C50.6604 102.352 50.8169 102.5 51.0024 102.602C51.1879 102.705 51.3965 102.759 51.6085 102.759C51.6469 102.759 51.6855 102.757 51.7244 102.754C51.9551 102.732 52.1754 102.647 52.3607 102.508C52.5461 102.369 52.6892 102.182 52.7743 101.966L57.6996 89.4949L71.0723 90.4709C71.3033 90.4877 71.5346 90.4402 71.7402 90.3335C71.9459 90.2269 72.118 90.0653 72.2374 89.8667C72.3568 89.6682 72.4188 89.4404 72.4165 89.2087C72.4142 88.9771 72.3478 88.7506 72.2245 88.5544L59.5933 68.4482C59.6859 68.2942 59.773 68.1362 59.8546 67.9743L61.8412 64.0352C62.2967 63.1271 63.0326 62.3899 63.94 61.9329L67.8742 59.9433C69.1335 59.3053 70.1798 58.3144 70.8854 57.0918C71.5909 55.8691 71.9253 54.4674 71.8477 53.0579L71.6032 48.6141C71.5496 47.595 71.8222 46.5854 72.3814 45.7318L74.8006 42.0562C75.583 40.869 76 39.4784 76 38.0566C76 36.6348 75.583 35.2442 74.8006 34.057L72.3814 30.383ZM24.6474 98.7426L20.2931 87.7177C20.1951 87.4694 20.0203 87.2589 19.7942 87.1169C19.5682 86.9749 19.3027 86.9088 19.0364 86.9282L7.21513 87.791L18.135 70.4087C19.5221 71.5016 21.2602 72.0511 23.0235 71.9542L27.4594 71.7092C28.4767 71.6566 29.4842 71.9301 30.3352 72.49L33.0102 74.2563L36.5202 79.8436L24.6474 98.7426ZM68.7855 87.791L56.9642 86.9276C56.6979 86.9082 56.4325 86.9743 56.2064 87.1163C55.9804 87.2583 55.8056 87.4688 55.7075 87.7171L51.3526 98.7426L37.1 76.0558C38.8165 76.2794 40.5559 75.8734 41.9961 74.9129L45.6657 72.4902C46.516 71.9307 47.5228 71.6574 48.5393 71.7099L52.9771 71.9549C54.7404 72.052 56.4785 71.5024 57.8654 70.4093L68.7855 87.791ZM72.7074 40.6786L70.2884 44.353C69.4351 45.6557 69.0192 47.1965 69.1011 48.7517L69.3456 53.1958C69.3966 54.1192 69.1776 55.0376 68.7153 55.8387C68.2531 56.6398 67.5677 57.289 66.7426 57.7071L62.8097 59.6964C61.4238 60.3941 60.2997 61.5197 59.6039 62.9066L57.6171 66.8462C57.2019 67.6717 56.5547 68.358 55.755 68.8209C54.9553 69.2837 54.0378 69.503 53.1152 69.4517L48.6765 69.2069C47.1229 69.1259 45.584 69.5435 44.2845 70.3989L40.6151 72.8216C39.8397 73.335 38.9303 73.6087 38.0003 73.6087C37.0703 73.6087 36.161 73.335 35.3855 72.8216L31.717 70.3989C30.5262 69.6155 29.1323 69.1975 27.7069 69.1963C27.5789 69.1963 27.4504 69.1996 27.3224 69.2067L22.8855 69.4515C21.9627 69.5026 21.0452 69.2832 20.2454 68.8202C19.4455 68.3573 18.7983 67.6709 18.3829 66.8454L16.3963 62.9064C15.7005 61.5194 14.5763 60.3937 13.1903 59.696L9.25838 57.7085C8.43331 57.2905 7.74778 56.6413 7.28545 55.8402C6.82311 55.0391 6.60397 54.1208 6.65477 53.1972L6.89934 48.7532C6.98121 47.198 6.5653 45.6572 5.71199 44.3544L3.29301 40.6788C2.78054 39.9006 2.5074 38.9893 2.5074 38.0576C2.5074 37.1259 2.78054 36.2146 3.29301 35.4365L5.71199 31.7616C6.56559 30.4585 6.98152 28.9173 6.89934 27.3616L6.65477 22.918C6.60386 21.9945 6.82289 21.0762 7.28511 20.2751C7.74734 19.474 8.43277 18.8248 9.25776 18.4067L13.1909 16.4175C14.5767 15.7198 15.7008 14.5942 16.3965 13.2074L18.3833 9.26838C18.7986 8.44292 19.4458 7.75664 20.2456 7.29377C21.0453 6.8309 21.9628 6.61156 22.8855 6.66268L27.3239 6.90684C28.8774 6.9872 30.4161 6.5697 31.7159 5.7151L35.3849 3.29236C36.1601 2.77963 37.069 2.50624 37.9984 2.50624C38.9279 2.50624 39.8368 2.77963 40.612 3.29236L44.2805 5.7151C45.5805 6.57099 47.1201 6.98879 48.6745 6.90746L53.1114 6.6631C54.034 6.61241 54.9514 6.83197 55.7511 7.29487C56.5509 7.75777 57.1982 8.44392 57.6137 9.26922L59.6004 13.2076C60.2962 14.5944 61.4203 15.72 62.8061 16.4175L66.7387 18.4077C67.5643 18.8254 68.2504 19.4744 68.7131 20.2755C69.1759 21.0767 69.3953 21.9952 69.3446 22.919L69.1006 27.3616C69.0187 28.9168 69.4346 30.4576 70.288 31.7604L72.707 35.435C73.2197 36.2133 73.493 37.1248 73.493 38.0568C73.493 38.9888 73.2197 39.9003 72.707 40.6786H72.7074Z" fill="#313131"/>
<path d="M38 11.3892C23.3173 11.3892 11.3707 23.3518 11.3707 38.0556C11.3707 52.7593 23.3173 64.722 38 64.722C52.6826 64.722 64.6292 52.7587 64.6292 38.0552C64.6292 23.3516 52.6826 11.3892 38 11.3892V11.3892ZM38 62.2157C24.6985 62.2157 13.877 51.3775 13.877 38.0556C13.877 24.7336 24.6985 13.8954 38 13.8954C51.3014 13.8954 62.1229 24.7336 62.1229 38.0552C62.1229 51.3767 51.3014 62.2157 38 62.2157Z" fill="#313131"/>
<path d="M51.6015 32.7777L42.9799 31.5229L39.1242 23.6983C39.0207 23.4884 38.8607 23.3117 38.662 23.1881C38.4633 23.0645 38.2341 22.999 38.0001 22.999C37.7661 22.999 37.5368 23.0645 37.3382 23.1881C37.1395 23.3117 36.9794 23.4884 36.876 23.6983L33.0197 31.5229L24.3987 32.7777C24.1674 32.8114 23.9502 32.909 23.7715 33.0597C23.5928 33.2103 23.4598 33.408 23.3875 33.6302C23.3152 33.8525 23.3065 34.0906 23.3624 34.3175C23.4183 34.5445 23.5366 34.7512 23.7038 34.9145L29.9434 41.0054L28.4702 49.6065C28.4307 49.837 28.4565 50.074 28.5447 50.2906C28.6329 50.5072 28.7799 50.6948 28.9692 50.8322C29.1584 50.9696 29.3823 51.0513 29.6156 51.068C29.8489 51.0847 30.0822 51.0359 30.2891 50.9269L38.0001 46.8672L45.7105 50.9267C45.9174 51.0356 46.1506 51.0845 46.3839 51.0678C46.6171 51.051 46.841 50.9694 47.0303 50.832C47.2195 50.6947 47.3666 50.5071 47.4548 50.2905C47.543 50.074 47.5688 49.837 47.5294 49.6065L46.0567 41.0054L52.2963 34.9145C52.4636 34.7512 52.5819 34.5445 52.6378 34.3175C52.6937 34.0906 52.685 33.8525 52.6127 33.6302C52.5404 33.408 52.4074 33.2103 52.2287 33.0597C52.05 32.909 51.8328 32.8114 51.6015 32.7777V32.7777ZM43.8351 39.6714C43.6899 39.8132 43.5813 39.9882 43.5186 40.1813C43.456 40.3744 43.4412 40.5798 43.4755 40.7798L44.6305 47.5259L38.5849 44.3417C38.4049 44.2468 38.2046 44.1972 38.0011 44.1972C37.7977 44.1972 37.5973 44.2468 37.4174 44.3417L31.3704 47.5255L32.5258 40.7794C32.5601 40.5794 32.5452 40.3739 32.4826 40.1809C32.4199 39.9878 32.3113 39.8128 32.1661 39.671L27.2703 34.8922L34.0339 33.9078C34.235 33.8786 34.426 33.8008 34.5904 33.6813C34.7548 33.5618 34.8877 33.404 34.9775 33.2217L38.0001 27.0872L41.0231 33.2221C41.1129 33.4045 41.2458 33.5622 41.4102 33.6817C41.5746 33.8012 41.7656 33.879 41.9667 33.9082L48.7309 34.8926L43.8351 39.6714Z" fill="#313131"/>
<path d="M33.9824 19.8589C34.0666 19.8589 34.1506 19.8505 34.2331 19.8338C34.5482 19.7697 34.8711 19.7131 35.1928 19.665C35.5215 19.6159 35.8172 19.4383 36.015 19.1711C36.2127 18.9039 36.2962 18.5692 36.2471 18.2404C36.198 17.9117 36.0203 17.616 35.7531 17.4182C35.4859 17.2205 35.1512 17.137 34.8225 17.1861C34.4582 17.2406 34.0915 17.305 33.7351 17.3772C33.4304 17.4386 33.1593 17.611 32.9746 17.861C32.7898 18.1111 32.7046 18.4208 32.7355 18.7302C32.7664 19.0395 32.9111 19.3263 33.1417 19.5349C33.3722 19.7435 33.672 19.859 33.9829 19.8589H33.9824Z" fill="#313131"/>
<path d="M30.6179 20.9562C30.9215 20.8246 31.1608 20.5782 31.2834 20.2709C31.406 19.9635 31.4021 19.6201 31.2725 19.3157C31.1429 19.0112 30.8981 18.7703 30.5916 18.6457C30.285 18.521 29.9416 18.5226 29.6363 18.6502C25.7743 20.289 22.4806 23.0291 20.1665 26.5284C17.8524 30.0278 16.6205 34.1313 16.6245 38.3266C16.6245 38.659 16.7565 38.9777 16.9916 39.2127C17.2266 39.4478 17.5453 39.5798 17.8777 39.5798C18.21 39.5798 18.5288 39.4478 18.7638 39.2127C18.9988 38.9777 19.1308 38.659 19.1308 38.3266C19.1273 34.623 20.2149 31.0003 22.2578 27.9111C24.3007 24.8218 27.2085 22.4029 30.6179 20.9562V20.9562Z" fill="#313131"/>
</svg>
