<svg width="28" height="48" viewBox="0 0 28 48" fill="none" xmlns="http://www.w3.org/2000/svg">
<path d="M27.9929 14.6159C27.8907 14.2234 26.3291 13.1066 25.3332 13.3122C24.4408 13.4977 22.2287 14.3471 22.2287 14.3471C22.2287 14.3471 22.4948 12.7532 21.8967 12.4535C21.2987 12.1538 17.9388 9.6231 17.6472 9.39329C17.3569 9.16481 17.4133 8.73878 17.3206 8.48074C17.2292 8.22136 18.178 6.82634 18.6618 5.76865C19.1457 4.70962 19.4763 2.88588 18.6067 1.96394C18.4051 1.7489 18.4455 1.0729 17.8514 0.740942C16.8381 0.176484 15.0278 -0.0439239 14.5319 0.00714615C13.7443 0.089127 13.6046 1.04199 13.6046 1.04199C13.6046 1.04199 12.4273 2.35503 12.0913 2.7273C11.7553 3.10092 12.1733 3.59549 12.1733 3.59549C12.1733 3.59549 11.211 4.50266 11.1908 4.81848C11.1693 5.13297 11.6854 5.07652 11.6854 5.07652C11.6854 5.07652 11.8238 5.55631 11.6531 6.31161C11.5295 6.8586 11.1828 7.41499 11.2459 7.58971C11.3817 7.97004 12.1706 8.0238 12.1706 8.0238C12.1706 8.0238 12.4971 8.4579 12.1974 8.51166C11.8977 8.56676 8.25699 8.78448 7.51109 9.27099C6.7652 9.7575 4.74122 11.8729 4.48183 12.1417C4.22245 12.4105 4.45227 13.1604 4.16063 13.3996C3.86899 13.6375 2.87581 13.5407 2.60971 13.7853C2.34361 14.0299 1.89876 14.5903 1.64879 14.8954C1.39881 15.2005 0.34919 14.9532 0.0804 15.6978C-0.18839 16.4423 0.268553 17.7258 0.687865 17.8091C1.10718 17.8924 2.11648 19.8452 2.60165 20.075C3.08681 20.3048 3.74669 20.4983 3.8448 20.8115C3.69294 23.3005 4.48049 26.913 8.14141 26.2115C8.21398 26.7867 8.25833 28.3793 8.93971 28.816C9.62109 29.2501 10.6989 30.375 10.6989 30.375L9.31871 30.8252V46.3156H14.9848C14.9848 46.3156 14.9445 47.0884 15.3114 47.173H18.0006C18.897 47.173 20.1214 46.3156 20.1214 46.3156H21.8739V31.1518C21.8739 31.1518 22.1212 30.582 22.7394 30.5524C23.3576 30.5242 23.2407 30.8373 23.328 31.2405C23.4154 31.645 24.2675 32.7296 24.5604 32.5213C24.8534 32.313 26.8801 30.5309 26.8344 30.0632C26.7914 29.5982 25.5294 28.4464 25.5294 28.4464C25.5294 28.4464 25.1719 28.007 24.8991 27.667C24.6263 27.3283 24.1572 27.3753 23.8925 27.0622C23.6277 26.7477 23.7998 26.4171 23.453 26.1013C23.1049 25.7854 21.3806 24.2587 21.3806 24.2587C21.3806 24.2587 23.0176 23.3556 22.9544 21.9632C22.8926 20.5736 22.7179 16.914 22.7179 16.914C22.7179 16.914 26.4662 16.2851 26.7685 16.2085C27.0696 16.1292 28.095 15.0083 27.9929 14.6159ZM4.2332 20.9324C4.2332 20.9324 5.02076 22.1836 5.61881 22.1554C6.21687 22.1272 6.87003 22.5089 6.87003 22.5089C6.87003 22.5089 7.03265 24.0853 7.92906 25.9601C5.64704 26.5609 3.96307 23.5867 4.2332 20.9324ZM10.4476 16.7837C9.52702 17.043 9.23404 18.3803 9.23404 18.3803C9.23404 18.3803 8.36585 18.6249 7.63071 18.7875C6.89691 18.9515 6.73429 18.1088 5.91851 18.1357C5.10408 18.1639 4.50468 17.7567 4.50468 17.7567C4.50468 17.7567 4.53156 16.5055 4.50468 15.9625C4.47646 15.4196 5.12827 14.8202 6.06635 14.6575C7.00443 14.4936 9.36978 15.609 9.96783 15.5539C10.5659 15.5015 10.4839 14.5205 11.7338 14.3861C12.9837 14.249 13.7726 16.9947 13.7726 16.9947L12.0604 17.3737C12.0617 17.3723 11.6263 16.4477 10.4476 16.7837ZM13.9983 21.0695C13.9983 21.0695 12.7122 20.798 12.4689 20.0091L13.9983 19.6557V21.0695Z" fill="#453F7C"/>
</svg>
