<svg width="111" height="112" viewBox="0 0 111 112" fill="none" xmlns="http://www.w3.org/2000/svg">
<path d="M100.258 36.7794V45.731C100.258 47.7004 98.6465 49.3117 96.6772 49.3117H85.9353C83.9659 49.3117 82.3546 47.7004 82.3546 45.731V36.7794H91.3062H100.258Z" fill="#CCD1D9"/>
<path d="M91.3064 36.7794H82.3548V36.1528C76.5362 32.787 72.7766 26.2344 73.4927 18.8762C74.2983 10.587 80.9941 3.78376 89.2654 2.87069C100.061 1.68908 109.21 10.1036 109.21 20.6665C109.21 27.2907 105.611 33.0555 100.258 36.1528V36.7794H91.3064Z" fill="#FFEAA7"/>
<path d="M91.3063 24.2472C93.2838 24.2472 94.8869 22.6441 94.8869 20.6665C94.8869 18.689 93.2838 17.0859 91.3063 17.0859C89.3287 17.0859 87.7256 18.689 87.7256 20.6665C87.7256 22.6441 89.3287 24.2472 91.3063 24.2472Z" fill="#FCD770"/>
<path d="M60.2712 80.295L51.6598 78.2683L50.7395 73.6618C55.7506 70.8492 59.4136 65.9043 60.5165 60.0536H60.9766C65.9125 60.0536 69.9282 56.0379 69.9282 51.102C69.9282 49.4853 69.4645 47.9904 68.7126 46.6799L68.9006 46.1159C69.0098 45.8151 71.6129 38.6843 71.6129 33.2775C71.6129 28.347 67.7959 24.2847 62.9298 23.8246L61.3991 21.8105C57.4461 16.6096 51.1549 13.5052 44.5701 13.5052C42.1102 13.5052 39.6932 13.9241 37.3837 14.753L20.2539 20.8992C14.5643 22.9402 10.7419 28.3273 10.7419 34.3087C10.7419 35.476 10.887 36.6433 11.1824 37.8052L13.3988 45.9548L13.6333 46.8911C12.9548 48.1515 12.5323 49.5712 12.5323 51.102C12.5323 56.0379 16.548 60.0536 21.4839 60.0536H21.8401C22.943 65.9043 26.606 70.8492 31.6171 73.6618L30.6969 78.2683L22.0854 80.295C9.08231 83.3546 0 94.8181 0 108.177V111.973H82.3548V108.177C82.3548 94.8181 73.2725 83.3546 60.2712 80.295ZM54.3184 82.5722L51.128 91.0799L44.2604 85.3562L50.4262 81.6574L54.3184 82.5722ZM60.9748 56.4729H60.8656C60.8656 56.4353 60.871 56.3995 60.871 56.3601V45.731H60.9748C63.936 45.731 66.3458 48.1408 66.3458 51.102C66.3458 54.0632 63.936 56.4729 60.9748 56.4729ZM21.4624 24.2704L38.594 18.1242C40.5132 17.4349 42.5237 17.0858 44.5701 17.0858C50.0431 17.0858 55.269 19.6621 58.5507 23.9786L61.1234 27.3623H62.0114C65.3325 27.3623 68.034 30.0155 68.034 33.2793C68.034 36.8223 66.6698 41.4682 65.9519 43.6685C64.5268 42.7107 62.8153 42.1503 60.9748 42.1503H60.871V40.9186C60.871 35.6748 56.6261 31.4084 51.4073 31.4084C43.879 31.4084 39.5053 34.1387 35.2747 36.7812C31.9143 38.8776 28.4357 41.0421 23.0701 42.1503H21.4839C19.6255 42.1503 17.8996 42.7215 16.4674 43.6936L14.6448 36.894C14.4318 36.0507 14.3226 35.1788 14.3226 34.3087C14.3226 29.8347 17.1925 25.8011 21.4624 24.2704ZM21.4839 56.4729C18.5227 56.4729 16.1129 54.0632 16.1129 51.102C16.1129 48.1408 18.5227 45.731 21.4839 45.731V56.3619C21.4839 56.3995 21.4892 56.4353 21.4892 56.4747H21.4839V56.4729ZM25.0645 56.3619V45.3747C30.3585 44.0714 33.9606 41.8227 37.1707 39.8176C41.3224 37.227 44.9067 34.9891 51.4073 34.9891C54.6514 34.9891 57.2903 37.6495 57.2903 40.9204V56.3619C57.2903 65.3082 50.061 72.5858 41.1774 72.5858C32.2938 72.5858 25.0645 65.3082 25.0645 56.3619ZM41.1774 76.1665C43.3473 76.1665 45.4294 75.7977 47.3827 75.1442L48.1257 78.8609L41.1774 83.0306L34.2292 78.8609L34.9722 75.1442C36.9254 75.7977 39.0075 76.1665 41.1774 76.1665ZM31.9286 81.6556L38.0945 85.3544L31.2268 91.0781L28.0365 82.5705L31.9286 81.6556ZM78.7742 108.392H3.58065V108.177C3.58065 96.4902 11.5261 86.4555 22.9036 83.7807L24.5203 83.3994L29.6442 97.0595L41.1774 87.4491L52.7107 97.0595L57.8346 83.3994L59.4512 83.7807C70.8287 86.4555 78.7742 96.4902 78.7742 108.177V108.392Z" fill="#313131"/>
<path d="M95.2453 71.5117L98.1098 73.6601L100.258 70.7956V104.812H103.839V70.7956L105.987 73.6601L108.852 71.5117L102.048 62.4401L95.2453 71.5117Z" fill="#313131"/>
<path d="M80.5645 74.3762C80.5645 75.3644 79.7606 76.1665 78.7741 76.1665H73.4032L76.2677 74.0181L74.1193 71.1536L65.0477 77.9568L74.1175 84.76L76.2659 81.8955L73.4032 79.7471H78.7741C81.7353 79.7471 84.1451 77.3373 84.1451 74.3762V69.0052H80.5645V74.3762Z" fill="#313131"/>
<path d="M93.0969 101.231H96.6776V104.812H93.0969V101.231Z" fill="#313131"/>
<path d="M93.0969 94.0697H96.6776V97.6503H93.0969V94.0697Z" fill="#313131"/>
<path d="M93.0969 86.9084H96.6776V90.4891H93.0969V86.9084Z" fill="#313131"/>
<path d="M80.5644 54.6826H84.1451V58.2633H80.5644V54.6826Z" fill="#313131"/>
<path d="M80.5644 61.8439H84.1451V65.4246H80.5644V61.8439Z" fill="#313131"/>
<path d="M50.129 52.8923C51.1178 52.8923 51.9193 52.0907 51.9193 51.102C51.9193 50.1132 51.1178 49.3116 50.129 49.3116C49.1403 49.3116 48.3387 50.1132 48.3387 51.102C48.3387 52.0907 49.1403 52.8923 50.129 52.8923Z" fill="#313131"/>
<path d="M32.2258 52.8923C33.2146 52.8923 34.0161 52.0907 34.0161 51.102C34.0161 50.1132 33.2146 49.3116 32.2258 49.3116C31.237 49.3116 30.4355 50.1132 30.4355 51.102C30.4355 52.0907 31.237 52.8923 32.2258 52.8923Z" fill="#313131"/>
<path d="M50.2939 59.6901L50.5642 59.1477L47.3631 57.5471L47.0928 58.0896C45.981 60.315 43.7449 61.6971 41.2599 61.6971C38.7749 61.6971 36.5388 60.3168 35.427 58.0896L35.1531 57.5471L31.9502 59.1495L32.2206 59.6919C33.9429 63.1383 37.4053 65.2777 41.2563 65.2777C45.1073 65.2777 48.5716 63.1365 50.2939 59.6901Z" fill="#313131"/>
<path d="M102.048 45.731V37.1554C107.595 33.5353 111 27.3104 111 20.6665C111 15.0735 108.608 9.72405 104.439 5.99123C100.272 2.26019 94.6723 0.484193 89.0668 1.09827C79.9058 2.10981 72.6066 9.511 71.7097 18.6954C70.9917 26.0267 74.4471 33.1594 80.5646 37.1554V45.731C80.5646 48.6922 82.9744 51.102 85.9356 51.102H96.6775C99.6387 51.102 102.048 48.6922 102.048 45.731ZM75.2724 19.0445C76.0064 11.5359 81.9736 5.48456 89.4607 4.65744C90.0873 4.58761 90.7104 4.55181 91.3262 4.55181C95.3025 4.55181 99.055 5.97869 102.048 8.65881C105.463 11.7131 107.419 16.0904 107.419 20.6665C107.419 26.3848 104.331 31.7271 99.3612 34.606L98.7006 34.9891H93.0969V25.708C95.1754 24.9669 96.6775 22.9975 96.6775 20.6665C96.6775 17.7053 94.2677 15.2955 91.3065 15.2955C88.3453 15.2955 85.9356 17.7053 85.9356 20.6665C85.9356 22.9975 87.4376 24.9669 89.5162 25.708V34.9891H83.9125L83.2519 34.606C77.7055 31.3923 74.6494 25.4288 75.2724 19.0445V19.0445ZM89.5162 20.6665C89.5162 19.6782 90.3201 18.8762 91.3065 18.8762C92.293 18.8762 93.0969 19.6782 93.0969 20.6665C93.0969 21.6548 92.293 22.4568 91.3065 22.4568C90.3201 22.4568 89.5162 21.6548 89.5162 20.6665ZM84.1452 45.731V38.5697H98.4678V45.731C98.4678 46.7193 97.664 47.5213 96.6775 47.5213H85.9356C84.9491 47.5213 84.1452 46.7193 84.1452 45.731Z" fill="#313131"/>
</svg>
