<svg width="125" height="105" viewBox="0 0 125 105" fill="none" xmlns="http://www.w3.org/2000/svg">
<path d="M89.639 54.1334C87.6045 54.1334 85.6929 53.3394 84.2556 51.8977C83.5417 51.1814 83.5434 50.0222 84.2597 49.3083C84.9756 48.5944 86.135 48.5961 86.8492 49.3125C87.5943 50.0598 88.585 50.4714 89.639 50.4714C90.693 50.4714 91.6838 50.0598 92.4289 49.3125C93.1426 48.5961 94.302 48.5944 95.0184 49.3083C95.7347 50.0222 95.7364 51.1817 95.0225 51.8977C93.5852 53.3394 91.6733 54.1334 89.639 54.1334V54.1334Z" fill="#313131"/>
<path d="M84.4933 40.7883C84.0341 40.7883 83.5746 40.6167 83.2189 40.2719C82.5685 39.6413 81.4698 39.6415 80.8199 40.2719C80.094 40.9755 78.9348 40.9582 78.2307 40.2319C77.5268 39.5058 77.5446 38.3466 78.2707 37.6427C80.3377 35.6387 83.7011 35.6387 85.768 37.6427C86.4941 38.3466 86.5119 39.506 85.8081 40.2319C85.4492 40.6022 84.9714 40.7883 84.4933 40.7883V40.7883Z" fill="#313131"/>
<path d="M94.7848 40.7883C94.305 40.7883 93.826 40.6011 93.4666 40.2285C92.7644 39.5007 92.7854 38.3415 93.5132 37.6393C95.5836 35.6419 98.9455 35.6434 101.007 37.6425C101.733 38.3464 101.751 39.5058 101.047 40.2317C100.344 40.958 99.1843 40.9756 98.4582 40.2717C97.7983 39.6318 96.7206 39.6337 96.0558 40.2749C95.7006 40.6179 95.2423 40.7883 94.7848 40.7883V40.7883Z" fill="#313131"/>
<path d="M124.941 100.325L122.449 81.0019C120.757 67.9122 111.603 65.4275 103.527 63.235C103.527 63.235 102.982 63.0866 102.961 63.081C102.228 62.8783 101.665 62.4381 101.416 61.8749L100.485 59.7601C108 54.9633 113.682 46.3441 113.682 38.8673V32.7937C120.502 26.1848 121.055 14.9159 120.284 6.50526C120.227 5.88561 120.185 5.34727 120.148 4.88192C119.98 2.7444 119.887 1.56688 118.735 0.875451C117.635 0.214786 116.578 0.675737 115.354 1.2092C114.767 1.46507 114.037 1.78368 113.084 2.12085C110.314 3.09549 107.132 3.52519 103.065 3.4705C102.059 3.45268 101.224 4.26618 101.21 5.2772C101.197 6.28846 102.005 7.11881 103.017 7.13248C107.525 7.19327 111.111 6.69765 114.303 5.57432C115.184 5.26255 115.899 4.96395 116.462 4.72103C116.474 4.86825 116.486 5.01913 116.497 5.1688C116.535 5.64733 116.579 6.20105 116.637 6.83877C117.205 13.0296 117.225 24.0888 111.26 30.0407C110.485 29.9127 109.749 29.7926 109.049 29.6781C99.3168 28.088 96.3797 27.608 84.0737 22.0428C80.442 20.3961 78.1257 22.5695 77.0168 23.6098C76.7309 23.8762 76.4169 24.1926 76.0534 24.559C74.4096 26.2158 71.845 28.7999 68.7434 29.786C68.7363 24.2602 68.8637 20.5438 71.9676 17.8162C72.6964 17.1801 73.5582 16.6052 74.6049 16.0573L74.6513 16.0329C75.4728 15.6015 76.069 15.2045 76.2553 14.0197C76.2673 13.9432 76.2822 13.8441 76.3154 13.7001C76.6318 12.282 77.1015 11.0721 77.7129 10.1011C80.6353 5.44248 87.211 5.99475 94.8257 6.63417C95.8328 6.71865 96.7188 5.97033 96.8035 4.96273C96.8883 3.95513 96.14 3.06961 95.1321 2.98489C87.0625 2.30714 78.7183 1.60643 74.6122 8.15277C73.7787 9.47679 73.1493 11.075 72.7437 12.8922C72.7432 12.8949 72.7425 12.8973 72.742 12.9C71.5108 13.5572 70.4683 14.264 69.5552 15.0612C65.0555 19.0152 65.0677 24.113 65.0831 30.5668C65.0843 31.0324 65.0853 31.5077 65.0848 31.9929V31.9938C65.0848 31.9938 65.0848 31.9943 65.0848 31.9948V38.8671C65.0848 46.361 70.7918 55.0033 78.3313 59.794L77.188 62.5597C77.0139 62.9838 76.4484 63.0168 76.2795 63.0168H49.0038C47.7999 62.5724 47.1077 61.0301 46.637 59.794C54.1523 55.0165 59.8395 46.3993 59.8395 38.9225V32.071C59.8395 23.8664 57.233 16.9165 52.3019 11.9732C47.9048 7.56511 41.9835 5.08139 35.6288 4.97934C35.6091 4.97909 35.5898 4.97909 35.57 4.97934C29.2153 5.08139 23.294 7.56511 18.8969 11.9732C13.9658 16.9167 11.3593 23.8664 11.3593 32.071V38.9225C11.3593 46.4013 17.0497 55.0212 24.5675 59.7977C24.0843 61.0667 23.3697 62.6586 22.1182 63.0492C22.043 63.0661 21.9687 63.0878 21.896 63.1142C20.8183 63.4025 19.6369 63.7209 18.4555 64.0693L15.2867 61.9476C11.6525 59.5218 6.7173 60.502 4.28315 64.1357L2.60146 66.6548C0.488111 69.8209 0.958829 73.9678 3.5114 76.5885C3.08218 77.9303 2.75991 79.4035 2.55067 80.9882L0.0598756 100.313C-0.0485262 101.135 -0.0980882 102.335 0.718587 103.267C1.52745 104.189 2.6935 104.308 3.61907 104.308H15.6973C15.7828 104.32 15.8697 104.328 15.9586 104.328C16.0474 104.328 16.1341 104.32 16.2198 104.308H30.7202C31.7315 104.308 32.5513 103.488 32.5513 102.476C32.5513 101.465 31.7315 100.645 30.7202 100.645H17.7899V91.4239C17.7899 90.4126 16.9701 89.5928 15.9588 89.5928C14.9475 89.5928 14.1277 90.4126 14.1277 91.4239V100.645H3.70965L6.18213 81.4621C6.30103 80.561 6.46095 79.7065 6.65993 78.9039L8.84432 80.3664C9.35069 80.708 9.93493 80.8852 10.5341 80.8852C10.7321 80.8852 10.9315 80.8659 11.1305 80.8266C11.9343 80.6684 12.6269 80.206 13.0798 79.5265L20.1826 68.8963C20.519 68.3978 20.6948 67.8238 20.7004 67.2347C21.2068 67.0931 21.7075 66.9566 22.1951 66.8252L31.8272 73.3454C33.2003 74.3611 34.3998 74.8689 35.5993 74.8689C36.7988 74.8689 37.9983 74.3611 39.3714 73.3454L49.0047 66.8245C56.8856 68.9647 63.658 70.9018 65.023 81.456L67.4977 100.647L57.0714 100.646V91.4231C57.0714 90.4119 56.2515 89.592 55.2403 89.592C54.229 89.592 53.4092 90.4119 53.4092 91.4231V100.646L38.9217 100.644C37.9104 100.644 37.0905 101.464 37.0905 102.475C37.0905 103.487 37.9102 104.307 38.9217 104.307L54.9883 104.308C55.0711 104.319 55.1548 104.327 55.2408 104.327C55.3265 104.327 55.4102 104.319 55.493 104.308L121.381 104.313C122.307 104.313 123.473 104.195 124.282 103.273C125.098 102.342 125.048 101.142 124.941 100.325ZM10.3744 76.984L6.82278 74.606C5.88159 73.9778 5.24021 73.0136 5.0173 71.8915C4.79415 70.7689 5.01803 69.6315 5.64745 68.6883L7.32743 66.1716C8.63777 64.2158 11.2961 63.6869 13.2514 64.9924L16.7996 67.3677L10.3744 76.984ZM35.5995 8.64156C45.0632 8.80709 55.2046 15.5558 56.1116 29.9515C53.6164 29.3683 52.3837 28.1102 51.1842 26.8858C49.8653 25.5395 48.4061 24.0497 45.7744 24.0497C45.1184 24.0497 44.3896 24.1423 43.5719 24.3527C42.443 24.6435 41.4791 24.9004 40.6419 25.1237C38.0447 25.8162 36.7412 26.1636 35.5995 26.1636C34.4579 26.1636 33.1541 25.8162 30.5571 25.1237C29.7197 24.9006 28.7558 24.6435 27.6269 24.3527C23.5303 23.2978 21.6623 25.2038 20.0148 26.8858C18.8153 28.1102 17.5829 29.368 15.0874 29.9515C15.9944 15.5558 26.1359 8.80685 35.5995 8.64156ZM15.0215 38.9228V33.6965C19.1505 32.9978 21.136 30.9743 22.6306 29.4488C24.0696 27.9803 24.6649 27.3721 26.7135 27.8995C27.831 28.1871 28.7851 28.4415 29.6138 28.6624C32.5194 29.4369 33.9779 29.8258 35.5995 29.8258C37.2209 29.8258 38.6795 29.4369 41.5853 28.6622C42.4142 28.4412 43.3681 28.1868 44.4853 27.8992C46.5337 27.3721 47.1292 27.9798 48.5682 29.4486C50.0626 30.974 52.0483 32.9975 56.1773 33.6963V38.9225C56.1773 46.4105 48.8868 55.6821 40.5745 58.7644C36.9016 60.1282 34.2977 60.1287 30.6233 58.7642C22.3123 55.6823 15.0215 46.4105 15.0215 38.9228ZM37.2859 70.3356C37.2632 70.351 37.2409 70.3666 37.219 70.3829C35.7507 71.476 35.4479 71.4757 33.9799 70.3829C33.9579 70.3666 33.9357 70.351 33.913 70.3356L25.8339 64.8667C26.7853 63.8459 27.3905 62.599 27.8107 61.5592C28.319 61.7897 28.8313 62.0055 29.3491 62.1976C31.5982 63.0329 33.5985 63.4504 35.5993 63.4504C37.5996 63.4504 39.6001 63.0329 41.8483 62.1979C42.3683 62.005 42.8832 61.7882 43.3937 61.5565C43.8139 62.5956 44.4189 63.8417 45.3706 64.8628L37.2859 70.3356ZM68.7463 38.8673V33.5708C73.2579 32.572 76.7036 29.1029 78.6526 27.1389C78.989 26.7998 79.2798 26.5068 79.5179 26.2849C80.7706 25.1096 81.3539 24.8313 82.5624 25.3791C95.3111 31.1444 98.6239 31.6857 108.457 33.2927C108.959 33.3747 109.48 33.4597 110.019 33.5483V38.8673C110.019 46.372 102.706 55.6696 94.3691 58.7642C90.7316 60.1126 88.0267 60.1129 84.3903 58.7644C83.4718 58.4231 82.5668 58.0027 81.6815 57.5215C81.5738 57.4463 81.4574 57.3806 81.3309 57.3283C81.3263 57.3264 81.3214 57.3252 81.3167 57.3232C74.3388 53.3656 68.7463 45.4303 68.7463 38.8673ZM99.1142 64.9184L91.0944 70.3419C91.0705 70.358 91.0468 70.3749 91.0236 70.3922C89.5709 71.4782 89.2386 71.4784 87.793 70.3939C87.7691 70.3761 87.7449 70.3585 87.72 70.3419L79.9095 65.06C80.1807 64.7329 80.4056 64.3635 80.5733 63.9557L81.5663 61.5536C82.0785 61.7862 82.5949 62.0043 83.1166 62.1981C85.3698 63.0336 87.3746 63.4513 89.3793 63.4513C91.384 63.4513 93.3891 63.0336 95.6431 62.1979C96.1876 61.9957 96.7262 61.7687 97.2599 61.5243L98.0648 63.3534C98.3214 63.9325 98.6776 64.4589 99.1142 64.9184ZM110.851 100.651V91.4239C110.851 90.4126 110.031 89.5928 109.02 89.5928C108.009 89.5928 107.189 90.4126 107.189 91.4239V100.651L71.1902 100.648L68.655 80.9878C67.6425 73.1591 63.9578 69.1261 59.4313 66.6792H75.7663L85.633 73.3515C86.9876 74.3604 88.1954 74.8645 89.4044 74.8645C90.6129 74.8645 91.8229 74.3604 93.1806 73.3523L102.815 66.8367C110.689 68.9752 117.453 70.9169 118.817 81.4707L121.29 100.652L110.851 100.651Z" fill="#313131"/>
<path d="M40.9774 52.2319C41.6925 51.5168 41.6925 50.3574 40.9774 49.6425C40.2623 48.9271 39.1028 48.9274 38.388 49.6425C37.6426 50.3879 36.6523 50.7983 35.5995 50.7983C34.5468 50.7983 33.5565 50.3879 32.8111 49.6425C32.096 48.9274 30.9366 48.9274 30.2217 49.6425C29.5066 50.3576 29.5066 51.5168 30.2217 52.2319C31.6588 53.669 33.5685 54.4603 35.5995 54.4603C37.6306 54.4603 39.5403 53.669 40.9774 52.2319V52.2319Z" fill="#313131"/>
<path d="M31.7755 40.5538C32.4775 39.826 32.4567 38.6668 31.7289 37.9646C29.6617 35.9707 26.2983 35.9707 24.2311 37.9646C23.5033 38.6666 23.4826 39.826 24.1845 40.5538C24.8864 41.2816 26.0456 41.3024 26.7737 40.6005C27.439 39.9588 28.521 39.9588 29.1863 40.6005C29.5418 40.9433 29.9999 41.1137 30.4574 41.1137C30.9369 41.1137 31.4162 40.9262 31.7755 40.5538Z" fill="#313131"/>
<path d="M40.7417 41.1137C41.1993 41.1137 41.6575 40.9433 42.0128 40.6005C42.6778 39.9588 43.7602 39.9588 44.4255 40.6005C45.1535 41.3026 46.3127 41.2816 47.0146 40.5538C47.7166 39.826 47.6958 38.6668 46.968 37.9646C44.9006 35.9707 41.5372 35.9707 39.4702 37.9646C38.7424 38.6668 38.7217 39.826 39.4236 40.5538C39.783 40.9264 40.262 41.1137 40.7417 41.1137V41.1137Z" fill="#313131"/>
</svg>
