<svg width="81" height="111" viewBox="0 0 81 111" fill="none" xmlns="http://www.w3.org/2000/svg">
<rect y="36.6286" width="81" height="73.6364" rx="10" fill="#313131"/>
<rect x="4" y="40" width="74" height="67" rx="10" fill="#EDF9FD"/>
<path d="M11.0454 26.7337V36.8587H16V26.7337C19.1295 10.5337 33.8267 4.69318 39.5795 5C55.4113 4.32907 63.3494 20.0109 64.5 26.7337V36.8587H69.9545V26.7337C65.5363 4.0905 47.8636 -0.49643 39.5795 0.0405021C18.409 1.14505 11.7358 18.2962 11.0454 26.7337Z" fill="#313131"/>
<rect x="29.4546" y="55.0376" width="21.6307" height="7.36364" rx="3.68182" fill="#313131"/>
<rect x="29.4546" y="69.7649" width="21.6307" height="7.36364" rx="3.68182" fill="#313131"/>
<rect x="29.4546" y="84.0319" width="21.6307" height="7.36364" rx="3.68182" fill="#313131"/>
<rect x="29.4546" y="77.1285" width="21.6307" height="7.36364" rx="3.68182" transform="rotate(-90 29.4546 77.1285)" fill="#313131"/>
<rect x="43.7217" y="91.3956" width="21.6307" height="7.36364" rx="3.68182" transform="rotate(-90 43.7217 91.3956)" fill="#313131"/>
<rect x="36.8181" y="60.5604" width="11.5057" height="7.36364" rx="3.68182" transform="rotate(-90 36.8181 60.5604)" fill="#313131"/>
<rect x="36.8181" y="97.8387" width="11.5057" height="7.36364" rx="3.68182" transform="rotate(-90 36.8181 97.8387)" fill="#313131"/>
</svg>
