<svg width="60" height="44" viewBox="0 0 60 44" fill="none" xmlns="http://www.w3.org/2000/svg">
<path d="M46.5852 43.3813H36.949H34.3542H33.7938V30.4558H38.0211C39.0931 30.4558 39.7266 29.2376 39.0931 28.3605L30.87 16.9822C30.3462 16.2512 29.262 16.2512 28.7381 16.9822L20.515 28.3605C19.8816 29.2376 20.5029 30.4558 21.5871 30.4558H25.8144V43.3813H25.254H22.6591H11.4879C5.09222 43.028 0 37.0465 0 30.5655C0 26.0946 2.42428 22.1962 6.01807 20.0887C5.68915 19.1994 5.5186 18.2491 5.5186 17.2502C5.5186 12.6818 9.20984 8.99056 13.7782 8.99056C14.765 8.99056 15.7152 9.16111 16.6045 9.49004C19.2481 3.88616 24.9494 0 31.5766 0C40.153 0.0121823 47.2187 6.57846 48.0228 14.9477C54.6134 16.0807 59.6203 22.184 59.6203 29.0914C59.6203 36.4739 53.8703 42.8696 46.5852 43.3813Z" fill="#453F7C"/>
</svg>
